<svg width="27" height="26" viewBox="0 0 27 26" fill="none" xmlns="http://www.w3.org/2000/svg">
<g clip-path="url(#clip0_204_1621)">
<path d="M22.1549 5.18779H18.8591C17.5978 5.18779 16.5196 5.63537 15.6244 6.53052C14.7699 7.42566 14.3427 8.50391 14.3427 9.76526V13H11.7183V16.9061H14.3427V26H18.2488V16.9061H22.1549V13H18.2488V10.3756C18.2488 10.0501 18.3709 9.76526 18.615 9.52113C18.8591 9.23631 19.1643 9.0939 19.5305 9.0939H22.1549V5.18779ZM0 1.08333C0 0.485024 0.485025 0 1.08333 0H24.9777C25.576 0 26.061 0.485025 26.061 1.08333V24.9167C26.061 25.515 25.576 26 24.9777 26H1.08333C0.485024 26 0 25.515 0 24.9167V1.08333Z" fill="#C1B505"/>
</g>
<defs>
<clipPath id="clip0_204_1621">
<rect width="26.061" height="26" rx="5.41666" fill="white"/>
</clipPath>
</defs>
</svg>
