<svg width="143" height="300" viewBox="0 0 143 300" fill="none" xmlns="http://www.w3.org/2000/svg">
<path d="M133.141 15.7355L103.33 8.96605C103.33 8.96605 73.529 2.19881 73.5193 2.1966C72.2223 1.90208 62.7854 27.0671 62.151 28.6868C54.6225 47.8864 48.1513 67.6234 43.9513 87.8351C39.9179 107.223 37.0603 128.929 43.2373 148.196C47.6115 161.853 58.4333 176.38 74.2202 173.648C82.6526 172.189 90.116 167.772 96.1506 161.79C110.421 147.629 117.436 126.897 122.299 107.872C127.463 87.7049 130.244 66.9247 131.835 46.1922C132.605 36.0716 133.149 25.9097 133.141 15.7355Z" fill="url(#paint0_radial_276_46)"/>
<path d="M120.999 37.6406L98.0048 32.419L75.0102 27.1974C73.2354 26.7944 62.4234 57.7897 61.6902 59.8895C54.6698 79.9222 48.4839 101.519 49.0553 122.937C49.4204 136.638 53.7771 154.075 68.2406 159.113C76.5368 162.002 86.5069 156.165 92.296 150.496C106.962 136.127 112.349 113.17 115.908 93.705C119.009 76.7097 120.588 59.3689 120.96 42.1027C120.979 40.6201 121.01 39.1299 120.999 37.6406Z" fill="url(#paint1_linear_276_46)"/>
<path d="M64.3345 115.711C63.9071 117.593 62.0426 118.759 60.1702 118.334C58.2882 117.906 57.1221 116.042 57.5472 114.17C57.9724 112.297 59.8391 111.121 61.7115 111.547C63.586 111.962 64.7618 113.829 64.3345 115.711Z" fill="#FDF9F7"/>
<path opacity="0.5" d="M99.3737 101.579C98.8268 103.988 96.4335 105.495 94.0248 104.948C91.6162 104.401 90.1087 102.008 90.6557 99.5995C91.2026 97.1908 93.5959 95.6834 96.0045 96.2303C98.4132 96.7773 99.9207 99.1705 99.3737 101.579Z" fill="#FDF9F7"/>
<path opacity="0.5" d="M78.5915 122.517C78.0445 124.926 75.6513 126.433 73.2426 125.886C70.834 125.339 69.3362 122.948 69.8832 120.539C70.4302 118.131 72.8234 116.623 75.2223 117.168C77.6288 117.725 79.1362 120.118 78.5915 122.517Z" fill="#FDF9F7"/>
<path d="M83.9543 140.716C83.6398 142.101 82.266 142.958 80.891 142.646C79.5062 142.331 78.6394 140.955 78.9517 139.58C79.2661 138.195 80.64 137.338 82.0247 137.653C83.4019 137.955 84.2687 139.331 83.9543 140.716Z" fill="#FDF9F7"/>
<path d="M86.9235 57.0568C86.6091 58.4416 85.2352 59.2986 83.8602 58.9864C82.4755 58.6719 81.6087 57.2958 81.9209 55.9208C82.2353 54.5361 83.6092 53.679 84.994 53.9935C86.3712 54.296 87.238 55.6721 86.9235 57.0568Z" fill="#FDF9F7"/>
<path d="M107.352 89.2499C107.038 90.6346 105.664 91.4916 104.289 91.1794C102.904 90.865 102.037 89.4889 102.349 88.1139C102.664 86.7291 104.04 85.8623 105.425 86.1768C106.8 86.489 107.666 87.8651 107.352 89.2499Z" fill="#FDF9F7"/>
<path d="M77.8964 298.851C76.4507 295.056 63.8838 289.434 47.2206 285.096C46.485 283.73 45.9874 282.263 45.3245 280.892L71.7513 164.515L63.2283 162.58L36.8347 278.81C35.6036 279.761 34.4018 281.17 33.2548 281.976C17.001 278.952 3.96342 278.699 1.10146 281.412L77.8964 298.851Z" fill="url(#paint2_radial_276_46)"/>
<defs>
<radialGradient id="paint0_radial_276_46" cx="0" cy="0" r="1" gradientUnits="userSpaceOnUse" gradientTransform="translate(84.6508 91.2315) rotate(12.7937) scale(100.363)">
<stop stop-color="white" stop-opacity="0"/>
<stop offset="1" stop-color="white"/>
</radialGradient>
<linearGradient id="paint1_linear_276_46" x1="50.6206" y1="56.2642" x2="106.916" y2="112.166" gradientUnits="userSpaceOnUse">
<stop stop-color="#FEFFF2"/>
<stop offset="0.4892" stop-color="#FAE3AC"/>
<stop offset="1" stop-color="#D1955F"/>
</linearGradient>
<radialGradient id="paint2_radial_276_46" cx="0" cy="0" r="1" gradientUnits="userSpaceOnUse" gradientTransform="translate(50.5489 238.187) rotate(12.7937) scale(64.9017 64.9017)">
<stop stop-color="white"/>
<stop offset="1" stop-color="white" stop-opacity="0"/>
</radialGradient>
</defs>
</svg>
