<svg width="26" height="26" viewBox="0 0 26 26" fill="none" xmlns="http://www.w3.org/2000/svg">
<path d="M13.0528 8.36084C11.8431 8.36084 10.683 8.84138 9.82761 9.69675C8.97224 10.5521 8.4917 11.7123 8.4917 12.9219C8.4917 14.1316 8.97224 15.2917 9.82761 16.1471C10.683 17.0025 11.8431 17.483 13.0528 17.483C14.2625 17.483 15.4226 17.0025 16.278 16.1471C17.1333 15.2917 17.6139 14.1316 17.6139 12.9219C17.6139 11.7123 17.1333 10.5521 16.278 9.69675C15.4226 8.84138 14.2625 8.36084 13.0528 8.36084Z" fill="#C1B505"/>
<path fill-rule="evenodd" clip-rule="evenodd" d="M5.71294 0.40555C10.5912 -0.135183 15.5143 -0.135183 20.3926 0.40555C23.0577 0.703073 25.2063 2.80117 25.5193 5.47607C26.0978 10.4226 26.0978 15.4197 25.5193 20.3663C25.2063 23.0412 23.0577 25.1393 20.394 25.4382C15.5153 25.9791 10.5917 25.9791 5.71294 25.4382C3.04787 25.1393 0.899245 23.0412 0.586284 20.3677C0.00769699 15.4207 0.00769699 10.4231 0.586284 5.47607C0.899245 2.80117 3.04787 0.703073 5.71294 0.40555ZM20.0698 4.5007C19.6976 4.5007 19.3407 4.64856 19.0775 4.91175C18.8143 5.17494 18.6664 5.53191 18.6664 5.90411C18.6664 6.27632 18.8143 6.63328 19.0775 6.89647C19.3407 7.15967 19.6976 7.30752 20.0698 7.30752C20.442 7.30752 20.799 7.15967 21.0622 6.89647C21.3254 6.63328 21.4732 6.27632 21.4732 5.90411C21.4732 5.53191 21.3254 5.17494 21.0622 4.91175C20.799 4.64856 20.442 4.5007 20.0698 4.5007ZM6.38658 12.9212C6.38658 11.1532 7.08891 9.45761 8.33907 8.20745C9.58922 6.9573 11.2848 6.25497 13.0528 6.25497C14.8208 6.25497 16.5163 6.9573 17.7665 8.20745C19.0167 9.45761 19.719 11.1532 19.719 12.9212C19.719 14.6892 19.0167 16.3847 17.7665 17.6349C16.5163 18.885 14.8208 19.5874 13.0528 19.5874C11.2848 19.5874 9.58922 18.885 8.33907 17.6349C7.08891 16.3847 6.38658 14.6892 6.38658 12.9212Z" fill="#C1B505"/>
</svg>
