<svg width="46" height="46" viewBox="0 0 46 46" fill="none" xmlns="http://www.w3.org/2000/svg">
<g clip-path="url(#clip0_204_1561)">
<path d="M31.0762 22.649C27.8687 22.5764 25.69 22.5341 24.4555 22.6006C24.8307 22.1892 25.2906 21.6325 25.8413 20.9669C26.9851 19.5691 28.5586 17.6569 30.6889 15.527L30.471 15.3152C28.3407 17.4451 26.4284 19.0184 25.0304 20.1621C24.3586 20.7127 23.8019 21.1726 23.3964 21.5478C23.469 20.2165 23.4206 18.0563 23.348 14.934C23.2633 11.3639 23.1543 6.47461 23.1543 0H22.8517C22.8517 6.47461 22.7367 11.3578 22.6581 14.9279C22.5854 18.0502 22.537 20.2165 22.6097 21.5478C22.1981 21.1726 21.6414 20.7127 20.9696 20.1621C19.5716 19.0184 17.6593 17.4451 15.529 15.3152L15.3172 15.527C17.4474 17.663 19.0209 19.5751 20.1708 20.9729C20.7215 21.6385 21.1754 22.1952 21.5506 22.6067C20.316 22.5401 18.1373 22.5825 14.9299 22.6551C11.3653 22.7338 6.47546 22.8487 0 22.8487V23.1513C0.00605183 23.1513 0.00605183 23.1513 0.0121037 23.1513C6.48757 23.1513 11.3653 23.2662 14.9299 23.3449C18.1313 23.4175 20.31 23.4599 21.5445 23.3933C21.1693 23.7987 20.7094 24.3554 20.1587 25.0271C19.0088 26.4249 17.4414 28.337 15.3111 30.467L15.523 30.6788C17.6532 28.5488 19.5716 26.9755 20.9636 25.8319C21.6353 25.2812 22.1921 24.8274 22.5976 24.4462C22.5249 25.7774 22.5733 27.9437 22.646 31.066C22.7307 34.6301 22.8396 39.5133 22.8396 45.9939H23.1422C23.1422 39.5133 23.2572 34.6301 23.3359 31.066C23.4085 27.9437 23.4569 25.7774 23.3843 24.4522C23.7958 24.8274 24.3526 25.2873 25.0183 25.8379C26.4163 26.9816 28.3286 28.5549 30.4589 30.6848L30.6768 30.473C30.6707 30.467 30.6707 30.467 30.6646 30.4609C28.5405 28.331 26.973 26.4249 25.8292 25.0331C25.2785 24.3615 24.8186 23.8048 24.4434 23.3933C25.6779 23.4599 27.8566 23.4175 31.058 23.3449C34.6225 23.2602 39.5064 23.1513 45.9879 23.1513V22.8487C39.5245 22.8487 34.6407 22.7338 31.0762 22.649Z" fill="#FFF4F0"/>
</g>
<defs>
<clipPath id="clip0_204_1561">
<rect width="46" height="46" fill="white"/>
</clipPath>
</defs>
</svg>
