<svg width="76" height="77" viewBox="0 0 76 77" fill="none" xmlns="http://www.w3.org/2000/svg">
<g clip-path="url(#clip0_204_1559)">
<path d="M51.35 37.43C46.05 37.31 42.45 37.24 40.41 37.35C41.03 36.67 41.79 35.75 42.7 34.65C44.59 32.34 47.19 29.18 50.71 25.66L50.35 25.31C46.83 28.83 43.67 31.43 41.36 33.32C40.25 34.23 39.33 34.99 38.66 35.61C38.78 33.41 38.7 29.84 38.58 24.68C38.44 18.78 38.26 10.7 38.26 0H37.76C37.76 10.7 37.57 18.77 37.44 24.67C37.32 29.83 37.24 33.41 37.36 35.61C36.68 34.99 35.76 34.23 34.65 33.32C32.34 31.43 29.18 28.83 25.66 25.31L25.31 25.66C28.83 29.19 31.43 32.35 33.33 34.66C34.24 35.76 34.99 36.68 35.61 37.36C33.57 37.25 29.97 37.32 24.67 37.44C18.78 37.57 10.7 37.76 0 37.76V38.26C0.01 38.26 0.01 38.26 0.02 38.26C10.72 38.26 18.78 38.45 24.67 38.58C29.96 38.7 33.56 38.77 35.6 38.66C34.98 39.33 34.22 40.25 33.31 41.36C31.41 43.67 28.82 46.83 25.3 50.35L25.65 50.7C29.17 47.18 32.34 44.58 34.64 42.69C35.75 41.78 36.67 41.03 37.34 40.4C37.22 42.6 37.3 46.18 37.42 51.34C37.56 57.23 37.74 65.3 37.74 76.01H38.24C38.24 65.3 38.43 57.23 38.56 51.34C38.68 46.18 38.76 42.6 38.64 40.41C39.32 41.03 40.24 41.79 41.34 42.7C43.65 44.59 46.81 47.19 50.33 50.71L50.69 50.36C50.68 50.35 50.68 50.35 50.67 50.34C47.16 46.82 44.57 43.67 42.68 41.37C41.77 40.26 41.01 39.34 40.39 38.66C42.43 38.77 46.03 38.7 51.32 38.58C57.21 38.44 65.28 38.26 75.99 38.26V37.76C65.31 37.76 57.24 37.57 51.35 37.43Z" fill="#FFF4F0"/>
</g>
<defs>
<clipPath id="clip0_204_1559">
<rect width="76.01" height="76.02" fill="white"/>
</clipPath>
</defs>
</svg>
