<svg width="91" height="107" viewBox="0 0 91 107" fill="none" xmlns="http://www.w3.org/2000/svg">
<path d="M48.2 3.24991C55.01 -2.38009 66.31 0.149907 73.1 4.48991C80.04 8.92991 85.73 16.3199 88.44 24.0699C93.4 38.2399 86.89 53.1299 75.07 61.5699C62.78 70.3399 44.3 72.7899 31.11 64.5399C28.34 62.7999 25.72 60.2699 25.14 56.9099C24.59 53.7399 25.68 50.3899 28.13 48.2999C32.96 44.1799 41.49 47.4299 46.39 49.6799C54.2 53.2699 59.16 59.6599 60.85 68.1099C62.83 78.0599 59.91 89.0099 52.95 96.3799C46.04 103.69 36.13 106.94 26.25 106.22C17.47 105.58 6.67004 102.79 0.850039 95.6799C0.660039 95.4299 0.470039 95.1799 0.300039 94.9199C-0.889961 93.2099 1.77004 91.3899 2.96004 93.0999C5.62004 96.9199 10.16 98.9799 14.42 100.5C19.05 102.15 24.12 103.04 29.03 103.15C39.66 103.38 50.09 97.3899 55.06 87.9699C59.74 79.0799 59.45 66.4699 53.13 58.4799C49.09 53.3699 41.3 50.1999 34.94 49.7199C32.09 49.5099 29.3 50.4799 28.49 53.4499C27.51 57.0599 29.65 59.6699 32.48 61.6299C38.52 65.7999 46.75 66.8599 53.87 66.0799C68.98 64.4199 83.81 54.3399 86.54 38.6399C88.11 29.5799 84.61 20.7799 78.8 13.9399C75.24 9.73991 70.86 6.19991 65.56 4.52991C60.63 2.96991 54.25 2.42991 50.01 5.92991C48.42 7.23991 46.61 4.55991 48.2 3.24991Z" fill="#C1B505"/>
</svg>
