<svg width="201" height="241" viewBox="0 0 201 241" fill="none" xmlns="http://www.w3.org/2000/svg">
<g clip-path="url(#clip0_276_30)">
<path d="M0.219853 160.6C37.0799 145.83 55.3699 128.77 59.5399 105.31C63.5199 82.8799 55.0799 55.4799 39.1499 15.7399C39.0799 15.5599 39.1599 15.3499 39.3499 15.2799C39.5299 15.2099 39.7399 15.2899 39.8099 15.4799C55.7399 55.2199 68.5499 80.8599 86.9199 94.3399C106.14 108.44 131.15 108.14 168.01 93.3699C168.19 93.2999 168.4 93.3799 168.47 93.5699C168.54 93.7499 168.45 93.9599 168.27 94.0299C92.9499 124.21 99.1798 163.62 129.89 240.26C129.96 240.44 129.88 240.65 129.69 240.72C129.51 240.79 129.3 240.71 129.23 240.52C98.5098 163.87 75.7999 131.07 0.479853 161.25C0.299853 161.32 0.0898535 161.23 0.0198535 161.05C-0.0501465 160.88 0.0398535 160.67 0.219853 160.6Z" fill="#C1B505"/>
<path d="M94.5 90.81C94.83 91.64 95.61 92.16 96.48 92.16C96.75 92.16 97.02 92.11 97.27 92C108.34 87.56 117.49 85.41 125.24 85.41C147.34 85.41 158.14 102.65 172.67 138.89C173 139.7 173.77 140.22 174.64 140.22C174.91 140.22 175.18 140.17 175.43 140.07C176.52 139.63 177.05 138.39 176.61 137.31C167.28 114.03 161.96 96.92 164.27 83.58C166.64 69.89 177.28 59.94 198.76 51.33C199.84 50.9 200.38 49.66 199.95 48.57C199.62 47.75 198.85 47.23 197.98 47.23C197.7 47.23 197.44 47.28 197.18 47.39C185.92 51.9 176.65 54.1 168.84 54.1C161.55 54.1 155.38 52.17 149.98 48.21C139.24 40.33 131.63 25.05 122.13 1.33C121.8 0.52 121.02 0 120.15 0C119.88 0 119.62 0.05 119.37 0.15C118.84 0.36 118.42 0.77 118.2 1.29C117.98 1.81 117.97 2.39 118.18 2.92C127.69 26.64 132.73 42.94 130.41 56.06C128.02 69.54 117.31 79.41 95.7 88.07C94.62 88.5 94.08 89.73 94.5 90.81ZM115.14 82.59C126.3 75.38 132.34 67.05 134.17 56.72C135.41 49.75 134.75 42.08 132.58 33.13C137.19 41.1 142.01 47.1 147.72 51.29C153.8 55.75 160.71 57.92 168.84 57.92C172.11 57.92 175.6 57.57 179.34 56.85C168.29 64.06 162.32 72.47 160.51 82.93C159.28 90.04 160.02 98.02 162.27 107.2C159.98 103.23 157.62 99.69 155.1 96.59C146.81 86.36 137.32 81.6 125.24 81.6C122.09 81.59 118.73 81.92 115.14 82.59Z" fill="#BE4E28"/>
</g>
<defs>
<clipPath id="clip0_276_30">
<rect width="200.11" height="240.73" fill="white"/>
</clipPath>
</defs>
</svg>
